# File created by Blade
# Date/Time:  Thu Jan 22 16:36:26 2015
# Frame Rate: 120.000 fps
#------------------------------------------------------
:FULLY-SPECIFIED
:DEGREES
4115
root 0.584300 37.252404 7.584050 -5.308220 -1.775799 2.147137
RightUpLeg 14.303054 0.581216 -3.527388
RightLeg -4.885487 -0.000000 0.000000
RightFoot -13.723745 -20.737993 18.956172
RightToeBase -350.539990 -0.000000 -0.000000
LeftUpLeg 2.389517 1.817934 2.733622
LeftLeg 17.775725 -0.000000 -0.000000
LeftFoot -14.632088 11.405092 -19.405584
LeftToeBase 5.559198 -0.000000 -0.000000
Spine 14.238500 -2.141586 -0.146664
RightShoulder -6.576598 -6.612581 -30.063745
RightArm 3.294112 29.865771 31.734742
RightForeArm 14.575714 -0.000000 19.453346
RightHand 3.148316 -0.000000 -7.458765
RightHandThumb1 -24.326973 -0.000000 -32.862282
LeftShoulder -26.543944 28.750802 14.459943
LeftArm 44.745816 -50.180434 -62.091861
LeftForeArm 38.410442 -0.000000 12.677627
LeftHand -22.603252 -0.000000 1.177519
LeftHandThumb1 -26.253704 0.000000 33.147579
Head -6.086432 10.678754 -0.572972
4116
root 0.568910 37.235426 7.597225 -5.367050 -1.960074 1.943297
RightUpLeg 14.369745 0.501627 -3.349900
RightLeg -4.905255 -0.000000 0.000000
RightFoot -13.645721 -20.450492 18.874164
RightToeBase -350.488483 -0.000000 -0.000000
LeftUpLeg 3.315392 2.190920 3.056014
LeftLeg 16.025612 -0.000000 -0.000000
LeftFoot -14.382858 11.168479 -19.074674
LeftToeBase 5.740908 -0.000000 -0.000000
Spine 14.078770 -2.208926 -0.046660
RightShoulder -6.415739 -6.538742 -30.097931
RightArm 3.374505 29.440675 31.654995
RightForeArm 15.017511 -0.000000 19.394543
RightHand 3.265683 -0.000000 -7.862186
RightHandThumb1 -24.326973 -0.000000 -32.862282
LeftShoulder -26.480762 28.711957 14.772237
LeftArm 44.602297 -50.621709 -61.942103
LeftForeArm 39.127841 -0.000000 12.254622
LeftHand -22.883487 -0.000000 1.512130
LeftHandThumb1 -26.253704 0.000000 33.147579
Head -6.043427 10.854473 -0.483029
4117
root 0.549678 37.215372 7.614654 -5.422069 -2.088976 1.679030
RightUpLeg 14.378270 0.121949 -3.167461
RightLeg -4.780876 -0.000000 0.000000
RightFoot -13.581239 -19.870117 18.819433
RightToeBase -349.950749 -0.000000 -0.000000
LeftUpLeg 4.215780 2.570233 3.451058
LeftLeg 14.355820 -0.000000 -0.000000
LeftFoot -14.318834 11.105741 -19.298853
LeftToeBase 8.687526 -0.000000 -0.000000
Spine 13.908912 -2.318668 0.120086
RightShoulder -6.302931 -6.447748 -30.137643
RightArm 3.489486 29.495263 31.691900
RightForeArm 14.980604 -0.000000 19.332949
RightHand 3.385374 -0.000000 -7.775046
RightHandThumb1 -24.326973 -0.000000 -32.862282
LeftShoulder -26.489088 28.705437 15.020127
LeftArm 44.586990 -50.955593 -61.804752
LeftForeArm 39.821339 -0.000000 11.733960
LeftHand -23.099822 0.000000 1.964807
LeftHandThumb1 -26.253704 0.000000 33.147579
Head -5.999848 11.086636 -0.408549
4118
root 0.531616 37.193729 7.629812 -5.427146 -2.177336 1.409972
RightUpLeg 14.453684 0.018017 -2.899953
RightLeg -4.895538 -0.000000 0.000000
RightFoot -13.493410 -19.741527 18.776713
RightToeBase -349.704231 -0.000000 -0.000000
LeftUpLeg 5.012314 3.022952 3.846251
LeftLeg 12.927805 -0.000000 -0.000000
LeftFoot -14.293686 10.994745 -19.283399
LeftToeBase 8.762059 -0.000000 -0.000000
Spine 13.692553 -2.426281 0.292386
RightShoulder -6.269241 -6.426616 -30.110286
RightArm 3.633829 29.411789 31.706615
RightForeArm 15.124545 0.000000 19.308185
RightHand 3.546955 -0.000000 -7.922178
RightHandThumb1 -24.326973 -0.000000 -32.862282
LeftShoulder -26.456148 28.604163 15.282692
LeftArm 44.564735 -51.355956 -61.722396
LeftForeArm 40.723004 -0.000000 11.338072
LeftHand -23.402445 -0.000000 2.085472
LeftHandThumb1 -26.253704 0.000000 33.147579
Head -5.980554 11.277557 -0.319532
4119
root 0.519394 37.171796 7.648130 -5.444373 -2.188309 1.168370
RightUpLeg 14.550322 -0.179034 -2.685935
RightLeg -4.997425 -0.000000 0.000000
RightFoot -13.414648 -19.574591 18.763157
RightToeBase -349.566773 -0.000000 -0.000000
LeftUpLeg 5.777595 3.346046 4.174350
LeftLeg 11.693129 -0.000000 -0.000000
LeftFoot -14.297096 10.740599 -19.105439
LeftToeBase 9.724000 -0.000000 -0.000000
Spine 13.483898 -2.591104 0.433431
RightShoulder -6.206361 -6.326854 -30.085695
RightArm 3.629132 29.392482 31.707811
RightForeArm 15.079031 -0.000000 19.329678
RightHand 3.675577 -0.000000 -7.969346
RightHandThumb1 -24.326973 -0.000000 -32.862282
LeftShoulder -26.415937 28.507908 15.543002
LeftArm 44.543963 -51.666594 -61.607723
LeftForeArm 41.419984 0.000000 10.867881
LeftHand -23.759310 -0.000000 2.567237
LeftHandThumb1 -26.253704 0.000000 33.147579
Head -5.940975 11.423706 -0.226597
4120
root 0.509518 37.153533 7.667018 -5.451743 -2.143420 0.957069
RightUpLeg 14.618399 -0.490033 -2.526442
RightLeg -5.051108 -0.000000 0.000000
RightFoot -13.359611 -19.233202 18.881240
RightToeBase -348.887017 -0.000000 -0.000000
LeftUpLeg 6.476959 3.684059 4.479833
LeftLeg 10.516125 -0.000000 -0.000000
LeftFoot -14.204438 10.493047 -18.896135
LeftToeBase 10.305560 -0.000000 -0.000000
Spine 13.273113 -2.771849 0.543951
RightShoulder -6.231025 -6.224341 -30.021167
RightArm 3.645359 29.423619 31.749950
RightForeArm 14.975133 -0.000000 19.415518
RightHand 3.780281 -0.000000 -8.003829
RightHandThumb1 -24.326973 -0.000000 -32.862282
LeftShoulder -26.353374 28.430165 15.766853
LeftArm 44.644033 -52.029585 -61.586189
LeftForeArm 42.125649 -0.000000 10.345153
LeftHand -23.807519 -0.000000 2.982737
LeftHandThumb1 -26.253704 0.000000 33.147579
Head -5.928384 11.517990 -0.179371
4121
root 0.504562 37.139992 7.688607 -5.502703 -2.030834 0.833362
RightUpLeg 14.737116 -0.865684 -2.464980
RightLeg -5.091711 -0.000000 0.000000
RightFoot -13.293600 -18.988455 18.840002
RightToeBase -348.565655 -0.000000 -0.000000
LeftUpLeg 7.176619 3.903642 4.678551
LeftLeg 9.345109 -0.000000 -0.000000
LeftFoot -14.012203 10.383697 -18.793456
LeftToeBase 10.434329 -0.000000 -0.000000
Spine 13.118051 -2.946358 0.512704
RightShoulder -6.274847 -6.073821 -29.863224
RightArm 3.565659 29.463391 31.760479
RightForeArm 14.816720 -0.000000 19.493115
RightHand 3.932999 -0.000000 -8.028844
RightHandThumb1 -24.326973 -0.000000 -32.862282
LeftShoulder -26.256607 28.327453 16.017023
LeftArm 44.587945 -52.245280 -61.323139
LeftForeArm 42.569880 0.000000 9.845907
LeftHand -24.091671 -0.000000 3.537993
LeftHandThumb1 -26.253704 0.000000 33.147579
Head -5.908221 11.557908 -0.017841
4122
root 0.506794 37.132256 7.706420 -5.511425 -1.851307 0.812785
RightUpLeg 14.787517 -1.376306 -2.524532
RightLeg -5.064622 -0.000000 0.000000
RightFoot -13.190006 -18.797858 18.590163
RightToeBase -348.681323 -0.000000 -0.000000
LeftUpLeg 7.770011 3.947203 4.723633
LeftLeg 8.160267 -0.000000 -0.000000
LeftFoot -13.673487 10.362033 -18.684176
LeftToeBase 10.714494 -0.000000 -0.000000
Spine 12.917474 -3.114731 0.363384
RightShoulder -6.354134 -6.023715 -29.650636
RightArm 3.485822 29.526898 31.794998
RightForeArm 14.748001 -0.000000 19.544394
RightHand 4.194522 -0.000000 -8.025427
RightHandThumb1 -24.326973 -0.000000 -32.862282
LeftShoulder -26.169287 28.373482 16.178965
LeftArm 44.838777 -52.541526 -61.302699
LeftForeArm 43.050410 -0.000000 9.358696
LeftHand -24.176993 -0.000000 4.047267
LeftHandThumb1 -26.253704 0.000000 33.147579
Head -5.893120 11.609399 0.165204
4123
root 0.513051 37.134259 7.724203 -5.552568 -1.618957 0.894219
RightUpLeg 14.862227 -1.857451 -2.694124
RightLeg -5.020755 -0.000000 0.000000
RightFoot -13.192076 -18.538741 18.619935
RightToeBase -348.327884 -0.000000 -0.000000
LeftUpLeg 8.343496 3.894461 4.654583
LeftLeg 7.003501 -0.000000 -0.000000
LeftFoot -13.134890 10.358330 -18.494526
LeftToeBase 10.848237 -0.000000 -0.000000
Spine 12.775567 -3.320663 0.057254
RightShoulder -6.432194 -6.030644 -29.371259
RightArm 3.402026 29.583874 31.847148
RightForeArm 14.675799 -0.000000 19.638220
RightHand 4.238563 0.000000 -7.996587
RightHandThumb1 -24.326973 -0.000000 -32.862282
LeftShoulder -26.020018 28.328712 16.375396
LeftArm 44.864096 -52.873282 -61.152454
LeftForeArm 43.488579 -0.000000 9.038002
LeftHand -24.285671 -0.000000 4.179033
LeftHandThumb1 -26.253704 0.000000 33.147579
Head -5.919423 11.658158 0.370111
4124
root 0.522786 37.146744 7.744945 -5.656597 -1.327557 1.040179
RightUpLeg 15.057297 -2.209256 -2.921091
RightLeg -5.100617 -0.000000 0.000000
RightFoot -13.089393 -18.415926 18.753254
RightToeBase -348.019874 -0.000000 -0.000000
LeftUpLeg 8.952289 3.612198 4.476894
LeftLeg 5.892980 -0.000000 -0.000000
LeftFoot -12.562719 10.504431 -18.499867
LeftToeBase 10.827813 -0.000000 -0.000000
Spine 12.729114 -3.535183 -0.345640
RightShoulder -6.520673 -6.034633 -29.049795
RightArm 3.290112 29.688576 31.926149
RightForeArm 14.488374 -0.000000 19.667294
RightHand 4.308316 -0.000000 -7.994433
RightHandThumb1 -24.326973 -0.000000 -32.862282
LeftShoulder -25.963430 28.285073 16.511644
LeftArm 45.179476 -53.173256 -61.231108
LeftForeArm 43.950719 -0.000000 8.732619
LeftHand -24.399344 -0.000000 4.306354
LeftHandThumb1 -26.253704 0.000000 33.147579
Head -5.979866 11.692228 0.648190
